Coordinates
version=1
nRows=8
nColumns=36
inDegrees=yes

Units are S.I. units (second, meters, Newtons, ...)
If the header above contains a line with 'inDegrees', this indicates whether rotational values are in degrees (yes) or radians (no).

endheader
time	pelvis_tilt	pelvis_list	pelvis_rotation	pelvis_tx	pelvis_ty	pelvis_tz	hip_flexion_r	hip_adduction_r	hip_rotation_r	knee_angle_r	knee_angle_r_beta	ankle_angle_r	subtalar_angle_r	mtp_angle_r	hip_flexion_l	hip_adduction_l	hip_rotation_l	knee_angle_l	knee_angle_l_beta	ankle_angle_l	subtalar_angle_l	mtp_angle_l	lumbar_extension	lumbar_bending	lumbar_rotation	arm_flex_r	arm_add_r	arm_rot_r	elbow_flex_r	pro_sup_r	arm_flex_l	arm_add_l	arm_rot_l	elbow_flex_l	pro_sup_l
      0.33000000	     -0.89863098	     -5.58046989	      2.40977323	      0.38547192	      0.97039750	     -0.16646043	      1.89376634	      7.87525685	     -1.25353488	      5.75081081	      0.10037058	      6.92387291	     -2.95195041	     -6.52331069	     29.33222655	     -4.87289492	      1.04933454	     56.01927590	      0.97772081	     -0.19771575	    -19.37032109	     -6.52331069	    -10.52293178	      5.06788404	      6.60141423	      7.19518279	     -7.40968457	     -7.89234591	     43.33176392	    104.85674388	      0.02671410	     -4.45136656	      6.57683909	     39.17913289	    105.78725160
      0.34000000	     -1.05953048	     -5.44018268	      2.43122374	      0.39644883	      0.97059933	     -0.16605748	      0.90094765	      7.81043018	     -1.22330581	      4.93286674	      0.08609477	      7.13171629	     -2.80254189	     -6.53230736	     29.87552752	     -4.91340079	      0.34044492	     52.83859295	      0.92220742	     -0.26661432	    -18.98060969	     -6.53230736	    -10.16936784	      4.74378929	      7.14296302	      7.39684522	     -7.66929412	     -7.83262020	     43.96626005	    104.93819560	     -0.64873628	     -4.57098803	      6.32205120	     38.86658606	    105.78112558
      0.35000000	     -0.94058215	     -5.29260534	      2.43434842	      0.40742314	      0.97100408	     -0.16567680	     -0.41070725	      7.74743025	     -0.99919077	      4.13091909	      0.07209814	      7.41658281	     -2.55909834	     -6.54862888	     29.91810465	     -5.00948067	     -0.47508881	     49.27238762	      0.85996539	     -0.47404940	    -18.40893122	     -6.54862888	    -10.23779169	      4.38420405	      7.78107023	      7.59442294	     -7.94764294	     -7.77796863	     44.73688930	    105.05598550	     -1.17646179	     -4.58434172	      5.89384110	     38.61333748	    105.79528009
      0.36000000	     -0.96976876	     -5.20356558	      2.48959986	      0.41850793	      0.97085598	     -0.16541305	     -1.52552017	      7.73052060	     -0.91729856	      3.38901142	      0.05914941	      7.70491818	     -2.34735628	     -6.56627460	     30.03735702	     -5.11949003	     -1.18560650	     45.52920600	      0.79463455	     -0.64962888	    -17.57203919	     -6.56627460	    -10.06677782	      4.09611360	      8.29743672	      7.74509083	     -8.22177449	     -7.72665852	     45.47310231	    105.17639598	     -1.78809080	     -4.67098662	      5.42576218	     38.42393255	    105.81141691
      0.37000000	     -1.14282816	     -5.13756820	      2.59270619	      0.42967163	      0.97020893	     -0.16531490	     -2.44149462	      7.71958426	     -0.85704330	      2.74254657	      0.04786647	      7.96278320	     -2.18054580	     -6.57702395	     30.20787589	     -5.17833653	     -1.74144137	     41.58805909	      0.72584856	     -0.82325872	    -16.46550131	     -6.57702395	     -9.68620436	      3.82553610	      8.72158805	      7.82236564	     -8.51327434	     -7.61486174	     46.16976932	    105.27320298	     -2.43539709	     -4.82112246	      5.00642252	     38.23225799	    105.79504516
      0.38000000	     -1.02331422	     -5.13572594	      2.62499946	      0.44092410	      0.96970441	     -0.16514396	     -3.66672772	      7.79256088	     -0.78271819	      2.13736499	      0.03730406	      8.38143973	     -1.93834558	     -6.59679486	     29.92378773	     -5.40438412	     -2.45765317	     37.46784202	      0.65393721	     -0.80072450	    -14.86131429	     -6.59679486	     -9.69378912	      3.62361199	      9.21538646	      7.97852319	     -8.82741954	     -7.51300362	     46.96110272	    105.32961338	     -3.01332823	     -4.90851589	      4.34657897	     38.13450102	    105.71263995
      0.39000000	     -1.29097982	     -5.17419665	      2.75212460	      0.45222022	      0.96838436	     -0.16527391	     -4.39604080	      7.87410003	     -0.74011387	      1.68468351	      0.02940327	      8.68367469	     -1.78406345	     -6.60748195	     30.00800396	     -5.47364892	     -2.70988739	     33.24586241	      0.58024976	     -0.81350058	    -13.27171776	     -6.60748195	     -9.17249835	      3.45842181	      9.54709037	      7.99273082	     -9.14359796	     -7.39064585	     47.63406582	    105.34538072	     -3.68149916	     -5.10402731	      3.88828713	     37.98227694	    105.60709410
      0.40000000	     -1.14219707	     -5.22281922	      2.82142421	      0.46370351	      0.96742592	     -0.16529912	     -5.56282435	      7.97868981	     -0.83042822	      1.30813871	      0.02283133	      9.31333015	     -1.26255241	     -6.65379671	     29.53764028	     -5.78178267	     -3.52742351	     29.01706134	      0.50644326	      0.12335154	    -10.12983127	     -6.65379671	     -9.19265806	      3.28190657	      9.90386111	      8.14636512	     -9.42567970	     -7.31410003	     48.35734668	    105.50636564	     -4.32001222	     -5.15180289	      2.74663080	     38.07660265	    105.59636618
